<svg width="60" height="60" viewBox="0 0 60 60" fill="none" xmlns="http://www.w3.org/2000/svg">
<path d="M58.9725 29.5248C58.8921 29.3973 58.7808 29.2923 58.6489 29.2196C58.5169 29.1469 58.3687 29.1088 58.218 29.1089H52.818C52.7776 28.9966 52.7149 28.8936 52.6339 28.806L47.7626 23.4594C47.6797 23.3684 47.5788 23.2955 47.4664 23.2454C47.3539 23.1953 47.2323 23.1691 47.1091 23.1683H44.6497L39.4161 17.5129C39.3326 17.4229 39.2315 17.3512 39.1191 17.3021C39.0066 17.253 38.8853 17.2277 38.7626 17.2277H21.3864V7.42576C21.3864 7.18943 21.2925 6.96277 21.1254 6.79566C20.9583 6.62855 20.7316 6.53467 20.4953 6.53467H16.3369C16.1005 6.53467 15.8739 6.62855 15.7068 6.79566C15.5397 6.96277 15.4458 7.18943 15.4458 7.42576V17.2277H10.3963C10.1599 17.2277 9.93328 17.3216 9.76617 17.4887C9.59906 17.6558 9.50517 17.8825 9.50517 18.1188V23.1683H7.42597C7.18964 23.1683 6.96298 23.2622 6.79587 23.4293C6.62876 23.5964 6.53488 23.8231 6.53488 24.0594V29.1089H2.37646C2.23362 29.1084 2.09273 29.1422 1.96568 29.2075C1.83863 29.2728 1.72914 29.3677 1.64644 29.4841C1.56375 29.6006 1.51026 29.7353 1.4905 29.8767C1.47074 30.0182 1.48528 30.1624 1.5329 30.2971L7.76458 48.1188C7.8262 48.2931 7.9405 48.4439 8.09164 48.5504C8.24278 48.6568 8.42329 48.7136 8.60815 48.7129H49.5982C49.7659 48.7127 49.9301 48.6652 50.0719 48.5759C50.2138 48.4866 50.3276 48.359 50.4002 48.208L59.0022 30.3862C59.0705 30.2518 59.1036 30.1023 59.0984 29.9516C59.0932 29.801 59.0499 29.6541 58.9725 29.5248ZM17.2279 8.31685H19.6042V17.2277H17.2279V8.31685ZM11.2874 19.0099H38.3705L42.22 23.1683H11.2874V19.0099ZM8.31706 24.9505H46.7171L50.4953 29.1089H8.31706V24.9505ZM49.0576 46.9307H9.25567L3.62993 30.8911H56.7982L49.0576 46.9307Z" fill="#1395DF"/>
<path d="M14.8515 42.1783C15.5564 42.1783 16.2456 41.9692 16.8317 41.5776C17.4179 41.1859 17.8747 40.6292 18.1445 39.9779C18.4143 39.3266 18.4849 38.61 18.3473 37.9185C18.2098 37.2271 17.8703 36.592 17.3718 36.0935C16.8734 35.5951 16.2383 35.2556 15.5468 35.1181C14.8554 34.9805 14.1387 35.0511 13.4874 35.3209C12.8361 35.5907 12.2795 36.0475 11.8878 36.6337C11.4962 37.2198 11.2871 37.909 11.2871 38.6139C11.2871 39.5592 11.6626 40.4659 12.3311 41.1343C12.9995 41.8027 13.9061 42.1783 14.8515 42.1783ZM14.8515 36.8317C15.2039 36.8317 15.5485 36.9363 15.8416 37.1321C16.1347 37.3279 16.3631 37.6063 16.498 37.9319C16.6329 38.2576 16.6682 38.6159 16.5994 38.9616C16.5306 39.3073 16.3609 39.6249 16.1117 39.8741C15.8624 40.1234 15.5449 40.2931 15.1992 40.3619C14.8534 40.4306 14.4951 40.3953 14.1695 40.2604C13.8438 40.1255 13.5655 39.8971 13.3696 39.604C13.1738 39.311 13.0693 38.9664 13.0693 38.6139C13.0693 38.1413 13.2571 37.688 13.5913 37.3537C13.9255 37.0195 14.3788 36.8317 14.8515 36.8317Z" fill="#1395DF"/>
<path d="M29.412 42.1783C30.117 42.1783 30.8061 41.9692 31.3923 41.5776C31.9784 41.1859 32.4353 40.6292 32.705 39.9779C32.9748 39.3266 33.0454 38.61 32.9079 37.9185C32.7703 37.2271 32.4309 36.592 31.9324 36.0935C31.4339 35.5951 30.7988 35.2556 30.1074 35.1181C29.416 34.9805 28.6993 35.0511 28.048 35.3209C27.3967 35.5907 26.84 36.0475 26.4484 36.6337C26.0567 37.2198 25.8477 37.909 25.8477 38.6139C25.8477 39.5592 26.2232 40.4659 26.8916 41.1343C27.5601 41.8027 28.4667 42.1783 29.412 42.1783ZM29.412 36.8317C29.7645 36.8317 30.1091 36.9363 30.4021 37.1321C30.6952 37.3279 30.9236 37.6063 31.0585 37.9319C31.1934 38.2576 31.2287 38.6159 31.1599 38.9616C31.0912 39.3073 30.9214 39.6249 30.6722 39.8741C30.423 40.1234 30.1054 40.2931 29.7597 40.3619C29.414 40.4306 29.0557 40.3953 28.73 40.2604C28.4044 40.1255 28.126 39.8971 27.9302 39.604C27.7344 39.311 27.6298 38.9664 27.6298 38.6139C27.6298 38.1413 27.8176 37.688 28.1518 37.3537C28.486 37.0195 28.9393 36.8317 29.412 36.8317Z" fill="#1395DF"/>
<path d="M43.9604 42.1783C44.6653 42.1783 45.3544 41.9692 45.9406 41.5776C46.5268 41.1859 46.9836 40.6292 47.2534 39.9779C47.5232 39.3266 47.5938 38.61 47.4562 37.9185C47.3187 37.2271 46.9792 36.592 46.4807 36.0935C45.9822 35.5951 45.3471 35.2556 44.6557 35.1181C43.9643 34.9805 43.2476 35.0511 42.5963 35.3209C41.945 35.5907 41.3884 36.0475 40.9967 36.6337C40.605 37.2198 40.396 37.909 40.396 38.6139C40.396 39.5592 40.7715 40.4659 41.44 41.1343C42.1084 41.8027 43.015 42.1783 43.9604 42.1783ZM43.9604 36.8317C44.3128 36.8317 44.6574 36.9363 44.9505 37.1321C45.2436 37.3279 45.472 37.6063 45.6069 37.9319C45.7418 38.2576 45.7771 38.6159 45.7083 38.9616C45.6395 39.3073 45.4698 39.6249 45.2205 39.8741C44.9713 40.1234 44.6537 40.2931 44.308 40.3619C43.9623 40.4306 43.604 40.3953 43.2783 40.2604C42.9527 40.1255 42.6744 39.8971 42.4785 39.604C42.2827 39.311 42.1782 38.9664 42.1782 38.6139C42.1782 38.1413 42.3659 37.688 42.7002 37.3537C43.0344 37.0195 43.4877 36.8317 43.9604 36.8317Z" fill="#1395DF"/>
</svg>
