<svg width="60" height="60" viewBox="0 0 60 60" fill="none" xmlns="http://www.w3.org/2000/svg">
<path d="M47.5247 11.8812H47.0197H46.8593H29.0732H28.9247H28.4494C25.8498 11.8812 23.3566 12.9139 21.5184 14.7521C19.6802 16.5903 18.6475 19.0835 18.6475 21.6831C18.6475 24.2828 19.6802 26.776 21.5184 28.6142C23.3566 30.4524 25.8498 31.4851 28.4494 31.4851C31.0871 31.4851 33.796 30.0178 35.9108 27.4515C36.1599 27.147 36.4735 26.9016 36.829 26.7331C37.1844 26.5646 37.5729 26.4772 37.9663 26.4772C38.3582 26.477 38.7454 26.5637 39.0998 26.7311C39.4542 26.8986 39.7671 27.1426 40.0158 27.4455C42.1425 30.0119 44.8692 31.4851 47.5247 31.4851C50.1243 31.4851 52.6175 30.4524 54.4557 28.6142C56.294 26.776 57.3267 24.2828 57.3267 21.6831C57.3267 19.0835 56.294 16.5903 54.4557 14.7521C52.6175 12.9139 50.1243 11.8812 47.5247 11.8812ZM47.5247 29.7029C45.4158 29.7029 43.1881 28.4673 41.4059 26.3109C40.9904 25.8053 40.4681 25.3982 39.8764 25.1188C39.2847 24.8394 38.6384 24.6947 37.9841 24.695C37.3279 24.6956 36.68 24.842 36.0872 25.1235C35.4944 25.405 34.9716 25.8146 34.5564 26.3227C32.7742 28.4732 30.5762 29.7029 28.4732 29.7029C26.3462 29.7029 24.3064 28.858 22.8023 27.354C21.2983 25.85 20.4534 23.8101 20.4534 21.6831C20.4534 19.5562 21.2983 17.5163 22.8023 16.0123C24.3064 14.5083 26.3462 13.6633 28.4732 13.6633C28.6692 13.6633 28.8653 13.6633 29.0673 13.6633C29.1558 13.6775 29.246 13.6775 29.3346 13.6633H46.5861C46.6844 13.6797 46.7848 13.6797 46.8831 13.6633C47.091 13.6633 47.3049 13.6633 47.5128 13.6633C49.6398 13.6633 51.6797 14.5083 53.1837 16.0123C54.6877 17.5163 55.5326 19.5562 55.5326 21.6831C55.5326 23.8101 54.6877 25.85 53.1837 27.354C51.6797 28.858 49.6398 29.7029 47.5128 29.7029H47.5247Z" fill="#1395DF"/>
<path d="M45.5285 16.6337H45.1839H45.0532H34.1582C33.9218 16.6337 33.6952 16.7275 33.5281 16.8947C33.361 17.0618 33.2671 17.2884 33.2671 17.5248C33.2671 17.7611 33.361 17.9877 33.5281 18.1549C33.6952 18.322 33.9218 18.4158 34.1582 18.4158H44.8512C44.9379 18.4284 45.026 18.4284 45.1126 18.4158C45.2552 18.4158 45.3978 18.4158 45.5404 18.4158C49.6037 18.4158 50.6017 19.7703 50.8512 21.802C50.8798 22.0141 50.9837 22.2089 51.1441 22.3507C51.3044 22.4925 51.5105 22.5719 51.7245 22.5743H51.8314C51.9477 22.5603 52.0601 22.5235 52.1621 22.4661C52.2642 22.4086 52.3539 22.3317 52.4262 22.2395C52.4985 22.1474 52.5519 22.0419 52.5833 21.9291C52.6148 21.8163 52.6238 21.6984 52.6097 21.5822C52.0631 17.1446 48.3087 16.6337 45.5285 16.6337Z" fill="#1395DF"/>
<path d="M41.2872 36.8317H30.5941C30.3578 36.8317 30.1311 36.9256 29.964 37.0927C29.7969 37.2598 29.703 37.4864 29.703 37.7228V42.4752C29.703 42.7116 29.7969 42.9382 29.964 43.1053C30.1311 43.2724 30.3578 43.3663 30.5941 43.3663H32.4951C32.3704 47.8455 28.4674 51.4515 23.6793 51.4515C18.8912 51.4515 14.8515 47.7267 14.8515 43.1525V10.396C14.8515 10.1597 14.7577 9.93305 14.5906 9.76594C14.4234 9.59883 14.1968 9.50494 13.9605 9.50494H9.20798C8.97165 9.50494 8.745 9.59883 8.57789 9.76594C8.41078 9.93305 8.31689 10.1597 8.31689 10.396V43.0693C8.31689 51.0891 15.208 57.6238 23.6793 57.6238C32.0377 57.6238 38.8516 51.2554 39.0357 43.3663H41.2872C41.5235 43.3663 41.7502 43.2724 41.9173 43.1053C42.0844 42.9382 42.1783 42.7116 42.1783 42.4752V37.7228C42.1783 37.4864 42.0844 37.2598 41.9173 37.0927C41.7502 36.9256 41.5235 36.8317 41.2872 36.8317ZM23.6793 55.8416C16.1882 55.8416 10.0991 50.103 10.0991 43.0455V11.2871H13.0694V43.1525C13.0694 48.7129 17.8218 53.2515 23.6793 53.2515C29.5367 53.2515 34.1585 48.8257 34.2773 43.3663H37.2476C37.0694 50.2752 31.0515 55.8416 23.6793 55.8416ZM40.3961 41.5842H31.4852V38.6139H40.3961V41.5842Z" fill="#1395DF"/>
</svg>
