<svg width="60" height="60" viewBox="0 0 60 60" fill="none" xmlns="http://www.w3.org/2000/svg">
<g clip-path="url(#clip0)">
<path d="M59.5122 22.6525C59.4056 22.0885 58.8625 21.7173 58.2979 21.8244C57.7339 21.9312 57.3631 22.4747 57.4699 23.0387C57.6037 23.7464 57.7048 24.4556 57.779 25.1649L50.9171 32.0268C50.5113 32.4326 50.5113 33.0907 50.9171 33.4964C51.12 33.6993 51.386 33.8009 51.6519 33.8009C51.9178 33.8009 52.1838 33.6994 52.3867 33.4964L57.9188 27.9642C57.8892 34.7031 55.2245 41.2294 50.3694 46.0844C48.746 47.7076 46.9384 49.0926 44.9737 50.2205C46.108 46.7909 46.5574 43.186 46.3078 39.5752L53.0002 32.8829C55.8062 30.077 52.5002 32.9999 50.9171 33.4964C50.5113 33.0906 51.4937 31.4501 51.088 31.8559L46.001 36.9427C45.982 36.8271 45.9655 36.7112 45.945 36.5957C45.0078 31.3028 42.5914 26.4601 38.9358 22.5269L51.088 10.3745C53.4358 12.9133 56.2982 19.7915 57.4699 23.0387C57.6645 23.5786 57.7582 22.0192 58.2979 21.8244C58.8378 21.6296 59.6751 23.0666 59.4804 22.5269C58.0873 18.6658 54.7631 11.0783 51.8388 8.15404C40.9761 -2.70866 23.3013 -2.70866 12.4386 8.15404C10.0018 10.5907 8.06201 13.4126 6.67298 16.5409C6.49849 16.9337 6.58392 17.3936 6.8879 17.6976C7.19177 18.0015 7.65185 18.0871 8.04454 17.9125C12.7552 15.8212 17.9389 15.1924 23.0347 16.0947C28.2468 17.0175 32.9877 19.491 36.7447 23.2481C40.5017 27.0053 42.9753 31.746 43.8982 36.9581C44.8004 42.0543 44.1718 47.2377 42.0804 51.9483C41.9059 52.3411 41.9913 52.8008 42.2953 53.1049C42.4944 53.304 42.7602 53.4094 43.0304 53.4094C43.1727 53.4094 43.3162 53.3801 43.4519 53.3199C46.5801 51.9311 49.4019 49.9912 51.8388 47.5542C58.3597 41.0337 61.228 31.7248 59.5122 22.6525ZM23.3977 14.048C23.2818 14.0272 23.166 14.0107 23.0501 13.9917L32.2268 4.81525C32.6326 4.40943 31.1631 5.22096 30.7572 4.81525C30.3514 4.40943 31.1629 2.93978 30.7572 3.3456L20.4174 13.6851C16.8069 13.4357 13.2022 13.885 9.77283 15.0194C10.9006 13.0548 12.2856 11.2471 13.909 9.62381C18.904 4.62881 25.4554 2.11701 32.0167 2.08607L30.7572 3.3456C30.3514 3.75142 30.3514 4.40955 30.7572 4.81525C30.9601 5.01822 31.2261 5.11971 31.492 5.11971C31.7579 5.11971 32.0239 5.01822 32.2268 4.81525L34.8176 2.22447C40.1785 2.77959 45.3967 5.00662 49.6187 8.90498L37.4666 21.0571C33.5333 17.4015 28.6906 14.9849 23.3977 14.048Z" fill="#1395DF"/>
<path d="M43.5001 52C43.4112 51.4327 43.0659 51.4108 42.5001 51.5L2.28669 57.7061L8.00012 18C8.08907 17.4329 8.06719 17.5888 7.50012 17.5C6.9334 17.4117 7.00012 16 6.50012 16.9999L0.0125531 58.7928C-0.0388922 59.1209 0.0696234 59.4538 0.30435 59.6886C0.500756 59.8849 0.765834 59.993 1.03912 59.993C1.09255 59.993 1.14646 59.9888 1.20013 59.9806L43.0001 53.5C43.5672 53.4111 43.5891 52.5671 43.5001 52Z" fill="#1395DF"/>
</g>
<defs>
<clipPath id="clip0">
<rect width="60" height="60" fill="white"/>
</clipPath>
</defs>
</svg>
