<svg width="60" height="60" viewBox="0 0 60 60" fill="none" xmlns="http://www.w3.org/2000/svg">
<path d="M54.422 43.9604C47.3705 41.8871 45.7428 33.6297 45.3923 31.1465C45.3944 31.1109 45.3944 31.0752 45.3923 31.0396C47.7475 24.377 48.8727 17.342 48.7131 10.2772C48.7172 9.90451 48.622 9.53742 48.4371 9.21376C48.2523 8.89009 47.9845 8.62154 47.6613 8.43577C47.3382 8.24999 46.9714 8.1537 46.5987 8.15681C46.2259 8.15992 45.8608 8.26232 45.5408 8.45346C42.416 10.2053 39.4555 12.2353 36.6952 14.5188C34.7883 12.8247 32.5483 11.5479 30.119 10.7703C13.0338 5.39406 5.94078 20.0376 5.85761 20.198C5.77819 20.3643 5.75228 20.5511 5.78344 20.7327C5.8146 20.9143 5.9013 21.0818 6.0316 21.2121C6.1619 21.3424 6.3294 21.4291 6.51101 21.4603C6.69263 21.4915 6.87944 21.4656 7.04573 21.3861C8.23384 20.8396 11.7566 19.6812 14.014 20.8634C15.2022 21.4574 15.9269 22.6455 16.2358 24.4277C16.3946 25.5084 16.336 26.61 16.0637 27.6678C15.7913 28.7256 15.3106 29.7184 14.6497 30.5881C13.0695 32.8218 9.64177 35.7208 2.53682 36.8317C2.4198 36.8407 2.30569 36.8726 2.20101 36.9257C2.09633 36.9787 2.00313 37.0519 1.92673 37.141C1.77243 37.3209 1.69592 37.5548 1.71404 37.7911C1.73216 38.0274 1.84342 38.2469 2.02334 38.4012C2.20327 38.5555 2.43712 38.632 2.67345 38.6139H2.81602C10.5388 37.396 14.2992 34.1465 16.0933 31.6396C16.893 30.5783 17.4727 29.3679 17.7981 28.0794C18.1235 26.7909 18.1882 25.4504 17.9883 24.1366C17.5843 21.796 16.5269 20.1624 14.8398 19.2772C12.8675 18.2436 10.4616 18.499 8.70315 18.9386C9.79601 17.3936 11.1089 16.0166 12.6002 14.8515C17.3051 11.2099 23.02 10.4139 29.5843 12.4752C31.6946 13.1509 33.6466 14.2461 35.323 15.695C31.2365 19.2181 27.7565 23.3884 25.022 28.0396C20.1269 36.5584 16.7764 50.1089 16.6338 50.6792C16.6021 50.8116 16.6011 50.9495 16.631 51.0824C16.6609 51.2152 16.7208 51.3395 16.8061 51.4455C16.8927 51.5505 17.0017 51.6349 17.125 51.6924C17.2483 51.75 17.3829 51.7793 17.519 51.7782L22.8655 51.6832L25.5032 56.3228C25.5705 56.4405 25.6639 56.5413 25.7761 56.6175C25.8883 56.6936 26.0164 56.7432 26.1507 56.7624H26.2754C26.4976 56.7562 26.7095 56.6672 26.8695 56.5129C27.3269 56.1208 37.3071 46.396 42.1784 37.8951C42.9091 36.6178 43.5626 35.3287 44.1388 34.0337C45.1487 37.8832 47.6378 43.8238 53.917 45.6832C54.0301 45.7163 54.1487 45.7269 54.2659 45.7142C54.3831 45.7016 54.4966 45.6659 54.6001 45.6094C54.7035 45.5529 54.7948 45.4765 54.8687 45.3847C54.9426 45.2929 54.9977 45.1874 55.0309 45.0743C55.064 44.9611 55.0746 44.8426 55.0619 44.7254C55.0493 44.6082 55.0137 44.4946 54.9571 44.3912C54.9006 44.2878 54.8242 44.1965 54.7324 44.1226C54.6406 44.0487 54.5351 43.9935 54.422 43.9604ZM40.6398 37.0099C36.6774 43.9069 28.9784 51.903 26.4596 54.4396L24.1368 50.3525C24.0593 50.2158 23.9471 50.1021 23.8114 50.0228C23.6758 49.9435 23.5216 49.9015 23.3645 49.901L18.6715 49.9842C19.6041 46.5208 22.5744 35.8396 26.5665 28.9248C32.5843 18.4158 42.4636 12.2079 46.4319 10.0158C46.4831 9.97434 46.5456 9.94931 46.6113 9.94402C46.677 9.93873 46.7428 9.95344 46.8 9.98621C46.8572 10.019 46.9031 10.0683 46.9318 10.1276C46.9605 10.187 46.9705 10.2536 46.9606 10.3188C47.0616 14.8515 46.6636 26.5188 40.6398 37.0099Z" fill="#1395DF"/>
<path d="M44.109 14.9703C43.907 14.8612 43.6707 14.8343 43.4494 14.8952C43.2281 14.956 43.0387 15.1 42.9209 15.297L25.3249 45.7782C25.2664 45.8796 25.2284 45.9916 25.2132 46.1076C25.1979 46.2237 25.2057 46.3417 25.236 46.4548C25.2664 46.5679 25.3187 46.6739 25.39 46.7667C25.4613 46.8596 25.5502 46.9375 25.6516 46.996C25.753 47.0545 25.865 47.0925 25.9811 47.1077C26.0971 47.123 26.2151 47.1152 26.3282 47.0849C26.4413 47.0545 26.5473 47.0022 26.6401 46.9309C26.733 46.8596 26.8109 46.7707 26.8694 46.6693L44.4358 16.1881C44.4943 16.0867 44.5324 15.9747 44.5476 15.8586C44.5629 15.7425 44.5552 15.6246 44.5248 15.5115C44.4945 15.3984 44.4421 15.2923 44.3708 15.1995C44.2994 15.1066 44.2105 15.0287 44.109 14.9703Z" fill="#1395DF"/>
</svg>
