<svg width="60" height="60" viewBox="0 0 60 60" fill="none" xmlns="http://www.w3.org/2000/svg">
<path d="M57.7723 20.002C57.691 19.8796 57.5806 19.7791 57.451 19.7097C57.3215 19.6403 57.1768 19.6039 57.0298 19.604H53.5961C53.4767 19.6033 53.3584 19.6266 53.2482 19.6725C53.1379 19.7184 53.0381 19.7861 52.9545 19.8713L46.8595 26.1386H33.1961L40.3961 14.4297C40.4798 14.2946 40.5259 14.1394 40.5295 13.9805C40.533 13.8215 40.494 13.6645 40.4164 13.5257C40.3388 13.3869 40.2255 13.2713 40.0882 13.1911C39.951 13.1109 39.7947 13.0688 39.6357 13.0693H31.9129C31.6767 13.0695 31.4502 13.1636 31.2832 13.3307L18.4753 26.1386H14.0793C6.83767 26.1386 1.78223 30.1783 1.78223 35.9822C1.78223 36.5226 1.9969 37.0409 2.37903 37.423C2.76116 37.8052 3.27944 38.0198 3.81985 38.0198H16.9901L32.1743 53.204C32.3413 53.3712 32.5678 53.4652 32.804 53.4654H40.5268C40.6858 53.4659 40.842 53.4239 40.9793 53.3436C41.1166 53.2634 41.2299 53.1479 41.3075 53.0091C41.3851 52.8703 41.4241 52.7132 41.4206 52.5543C41.417 52.3953 41.3709 52.2402 41.2872 52.105L32.6139 38.0198H45.3387C46.8692 38.0191 48.3656 37.5681 49.6417 36.723C50.9177 35.878 51.9169 34.6762 52.5149 33.2674L57.8614 20.8278C57.9147 20.6932 57.9345 20.5477 57.919 20.4039C57.9034 20.26 57.8531 20.1221 57.7723 20.002ZM32.2812 14.8515H38.0199L31.0931 26.1386H20.9941L32.2812 14.8515ZM50.8753 32.5842C50.4119 33.6687 49.6402 34.5931 48.6558 35.2427C47.6715 35.8922 46.518 36.2382 45.3387 36.2377H31.0218C30.8628 36.2371 30.7066 36.2792 30.5693 36.3594C30.432 36.4397 30.3187 36.5552 30.2411 36.694C30.1635 36.8328 30.1245 36.9898 30.1281 37.1488C30.1316 37.3078 30.1777 37.4629 30.2614 37.5981L38.9288 51.6832H33.1723L17.9882 36.499C17.8212 36.3319 17.5947 36.2379 17.3585 36.2377H3.81985C3.785 36.2369 3.75066 36.2292 3.71884 36.215C3.68702 36.2007 3.65837 36.1803 3.63457 36.1548C3.61077 36.1294 3.5923 36.0994 3.58025 36.0667C3.5682 36.034 3.56281 35.9992 3.5644 35.9644C3.5644 31.2297 7.88916 27.9208 14.0793 27.9208H47.2397C47.359 27.9215 47.4774 27.8982 47.5876 27.8523C47.6978 27.8064 47.7977 27.7388 47.8812 27.6535L53.9703 21.3862H55.6812L50.8753 32.5842Z" fill="#1395DF"/>
</svg>
