<svg width="176" height="38" viewBox="0 0 176 38" fill="none" xmlns="http://www.w3.org/2000/svg">
<path d="M175.011 25.3923C174.465 25.3923 174.021 25.8423 174.021 26.3964C174.021 26.9505 174.465 27.4005 175.011 27.4005C175.557 27.4005 176 26.9505 176 26.3964C176 25.8423 175.557 25.3923 175.011 25.3923ZM175.011 27.2413C174.551 27.2413 174.178 26.8612 174.178 26.3964C174.178 25.9293 174.553 25.5515 175.011 25.5515C175.471 25.5515 175.845 25.9315 175.845 26.3964C175.845 26.8613 175.471 27.2413 175.011 27.2413ZM175.333 26.2244C175.333 26.0418 175.205 25.9336 175.017 25.9336H174.701V26.8486H174.856V26.5174H175.025L175.188 26.8486H175.356L175.176 26.4835C175.272 26.4388 175.333 26.3496 175.333 26.2244ZM175.011 26.3751H174.858V26.0716H175.011C175.115 26.0716 175.178 26.1247 175.178 26.2223C175.178 26.3221 175.113 26.3751 175.011 26.3751ZM55.8054 15.2299V12.8013H52.1369V27.2498H55.8054V18.5862C55.8054 17.0174 56.7969 16.2467 58.3426 16.2467H60.3505V12.8013H58.6354C57.2926 12.8013 56.1255 13.5124 55.8054 15.2299ZM63.7869 7.08643C62.532 7.08643 61.5699 8.0927 61.5699 9.36644C61.5699 10.6105 62.532 11.6167 63.7869 11.6167C65.0419 11.6167 66.004 10.6105 66.004 9.36644C66.004 8.09265 65.0419 7.08643 63.7869 7.08643ZM61.9568 27.2498H65.6171V12.8013H61.9568V27.2498ZM83.0524 20.0255C83.0524 24.1503 79.7582 27.494 75.6942 27.494C74.0544 27.494 72.5673 26.9484 71.3751 26.027V31.4914H67.7148V12.8013H71.3751V14.024C72.5673 13.1027 74.0544 12.5571 75.6942 12.5571C79.7582 12.5571 83.0524 15.9007 83.0524 20.0255ZM79.3692 20.0255C79.3692 17.7859 77.5788 15.9686 75.3722 15.9686C73.1655 15.9686 71.3751 17.7859 71.3751 20.0255C71.3751 22.2652 73.1656 24.0824 75.3722 24.0824C77.5788 24.0824 79.3692 22.2673 79.3692 20.0255ZM146.67 18.7582L144.534 18.1637C143.129 17.7922 142.583 17.3549 142.583 16.6013C142.583 15.8667 143.353 15.353 144.453 15.353C145.501 15.353 146.323 16.0493 146.323 16.9409V17.0237H149.696V16.9409C149.696 14.3191 147.59 12.5571 144.453 12.5571C141.347 12.5571 139.09 14.317 139.09 16.7434C139.09 18.6307 140.322 20.053 142.472 20.6432L144.518 21.21C146.072 21.6474 146.649 22.1314 146.649 22.9997C146.649 23.9147 145.814 24.5303 144.572 24.5303C143.277 24.5303 142.405 23.6981 142.405 22.4626V22.3798H138.824V22.4626C138.824 25.4262 141.175 27.4981 144.543 27.4981C147.787 27.4981 150.142 25.475 150.142 22.6897C150.142 21.3226 149.539 19.5352 146.67 18.7582ZM96.037 12.8013H99.6972V27.2498H96.037V26.0269C94.8448 26.9483 93.3576 27.4939 91.7178 27.4939C87.654 27.4939 84.3597 24.1503 84.3597 20.0255C84.3597 15.9006 87.654 12.5571 91.7178 12.5571C93.3576 12.5571 94.8448 13.1027 96.037 14.024V12.8013ZM96.037 20.0255C96.037 17.7837 94.2466 15.9686 92.0399 15.9686C89.8333 15.9686 88.043 17.7859 88.043 20.0255C88.043 22.2652 89.8333 24.0824 92.0399 24.0824C94.2486 24.0824 96.037 22.2673 96.037 20.0255ZM112.914 7.6596H116.574V27.2519H112.914V26.0291C111.722 26.9504 110.235 27.496 108.595 27.496C104.531 27.496 101.237 24.1524 101.237 20.0276C101.237 15.9027 104.531 12.5592 108.595 12.5592C110.235 12.5592 111.722 13.1048 112.914 14.0261V7.6596ZM112.914 20.0255C112.914 17.7859 111.123 15.9686 108.917 15.9686C106.71 15.9686 104.92 17.7859 104.92 20.0255C104.92 22.2652 106.708 24.0824 108.917 24.0824C111.123 24.0824 112.914 22.2673 112.914 20.0255ZM133.568 27.2498H137.228V12.8013H133.568V27.2498ZM135.398 7.08643C134.143 7.08643 133.181 8.0927 133.181 9.36644C133.181 10.6105 134.143 11.6167 135.398 11.6167C136.653 11.6167 137.615 10.6105 137.615 9.36644C137.615 8.09265 136.653 7.08643 135.398 7.08643ZM165.963 20.0255C165.963 24.1503 162.668 27.494 158.604 27.494C154.54 27.494 151.246 24.1504 151.246 20.0255C151.246 15.9007 154.54 12.5571 158.604 12.5571C162.668 12.5571 165.963 15.9007 165.963 20.0255ZM162.601 20.0255C162.601 17.7859 160.811 15.9686 158.604 15.9686C156.398 15.9686 154.607 17.7859 154.607 20.0255C154.607 22.2652 156.396 24.0824 158.604 24.0824C160.811 24.0824 162.601 22.2673 162.601 20.0255ZM53.9314 7.6596H39.8906V10.9735H45.0882V27.2498H48.7359V10.9735H53.9335V7.6596H53.9314ZM124.938 23.2927L121.682 12.8013H117.837L122.721 27.2498H127.126L132.039 12.8013H128.195L124.938 23.2927ZM171.325 15.2299V12.8013H167.657V27.2498H171.325V18.5862C171.325 17.0174 172.317 16.2467 173.862 16.2467H175.87V12.8013H174.155C172.812 12.8013 171.647 13.5124 171.325 15.2299Z" fill="#1E2831"/>
<path d="M18.7206 38C29.0591 38 37.4402 29.4934 37.4402 19C37.4402 8.50659 29.0591 0 18.7206 0C8.38203 0 0.000976562 8.50659 0.000976562 19C0.000976562 29.4934 8.38203 38 18.7206 38Z" fill="#34E0A1"/>
<path d="M30.282 15.2936L32.5409 12.7992H27.5316C25.0238 11.0605 21.9952 10.0479 18.7198 10.0479C15.4485 10.0479 12.4283 11.0626 9.9247 12.7992H4.90283L7.16174 15.2936C5.77714 16.5758 4.90913 18.4228 4.90913 20.4735C4.90913 24.3435 8.00052 27.4812 11.8135 27.4812C13.6248 27.4812 15.275 26.7721 16.507 25.613L18.7198 28.0586L20.9327 25.6151C22.1647 26.7743 23.8128 27.4812 25.6241 27.4812C29.4371 27.4812 32.5326 24.3435 32.5326 20.4735C32.5347 18.4206 31.6667 16.5737 30.282 15.2936ZM11.8155 25.216C9.23447 25.216 7.14295 23.0932 7.14295 20.4735C7.14295 17.8538 9.23452 15.7309 11.8155 15.7309C14.3965 15.7309 16.4881 17.8538 16.4881 20.4735C16.4881 23.0932 14.3965 25.216 11.8155 25.216ZM18.7219 20.3355C18.7219 17.2148 16.486 14.5357 13.5348 13.3914C15.1306 12.7142 16.8813 12.3385 18.7198 12.3385C20.5583 12.3385 22.311 12.7142 23.9069 13.3914C20.9578 14.5378 18.7219 17.2148 18.7219 20.3355ZM25.6262 25.216C23.0452 25.216 20.9536 23.0932 20.9536 20.4735C20.9536 17.8538 23.0452 15.7309 25.6262 15.7309C28.2073 15.7309 30.2988 17.8538 30.2988 20.4735C30.2988 23.0932 28.2072 25.216 25.6262 25.216ZM25.6262 17.9854C24.2729 17.9854 23.1769 19.0978 23.1769 20.4714C23.1769 21.8448 24.2729 22.9573 25.6262 22.9573C26.9795 22.9573 28.0755 21.8448 28.0755 20.4714C28.0754 19.0999 26.9795 17.9854 25.6262 17.9854ZM14.2647 20.4735C14.2647 21.847 13.1687 22.9594 11.8155 22.9594C10.4623 22.9594 9.36628 21.847 9.36628 20.4735C9.36628 19.0999 10.4623 17.9875 11.8155 17.9875C13.1687 17.9854 14.2647 19.0999 14.2647 20.4735Z" fill="#1E2831"/>
</svg>
